<?xml version="1.0" encoding="utf-8" ?><svg xmlns="http://www.w3.org/2000/svg" xmlns:xlink="http://www.w3.org/1999/xlink" width="1024" height="1024" viewBox="0 0 1024 1024"><path fill="#F5B742" d="M0 0L68.1212 0L135.593 0L203.646 0L281.909 0L350.001 0L417.973 0L485.274 0L553.301 0L620.374 0L687.516 0L754.512 0L820.989 0L888.126 0L955.979 0L1024 0L1024 67.9355L1024 135.27L1024 202.56L1024 271.023L1024 340.227L1024 408.499L1024 476.231L1024 546.75L1024 614.96L1024 683.491L1024 752.421L1024 821.196L1024 888.51L1024 955.783L1024 1024L955.984 1024L888.223 1024L821.058 1024L754.554 1024L687.562 1024L620.311 1024L553.479 1024L485.39 1024L417.924 1024L349.994 1024L282.005 1024L203.428 1024L135.562 1024L68.0201 1024L0 1024L0 955.664L0 888.521L0 820.986L0 752.44L0 683.359L0 614.835L0 546.593L0 476.227L0 408.104L0 339.997L0 270.639L0 202.615L0 134.983L0 67.8439L0 0Z"/><path fill="#FEFEFE" d="M960.5 752.332C981.666 752.476 1002.83 752.506 1024 752.421L1024 821.196L1024 888.51L1024 955.783L1024 1024L955.984 1024L888.223 1024L821.058 1024L754.554 1024L754.524 955.532L821.018 955.476C821.034 950.88 820.919 946.284 820.671 941.694C823.274 940.907 826.517 940.197 829.189 939.62C850.951 934.918 869.497 925.777 888.029 913.646C900.955 903.889 905.057 900.126 916.495 888.395C941.499 859.36 956.48 827.707 959.89 789.073C960.923 777.366 960.515 764.187 960.5 752.332Z"/><path fill="#E9E8E8" d="M754.524 955.532L821.018 955.476L888.218 955.463C888.125 977.571 888.951 1002.31 888.223 1024L821.058 1024L754.554 1024L754.524 955.532Z"/><path fill="#FEFEFE" d="M754.524 955.532L821.018 955.476L821.058 1024L754.554 1024L754.524 955.532Z"/><path fill="#E9E8E8" d="M956.001 955.512L1024 955.783L1024 1024L955.984 1024L956.001 955.512Z"/><path fill="#E9E8E8" d="M956.007 821.025C977.697 821.7 1002.17 821.333 1024 821.196L1024 888.51L955.918 888.596L955.952 845.716C955.946 837.504 955.58 829.194 956.007 821.025Z"/><path fill="#E9E8E8" d="M888.029 913.646C900.955 903.889 905.057 900.126 916.495 888.395C920.555 889.551 950.107 888.871 955.718 888.815C955.557 910.246 955.201 934.066 955.787 955.41L888.433 955.487C888.465 949.72 889.178 916.637 888.029 913.646Z"/><path fill="#FEFEFE" d="M820.989 0L888.126 0L955.979 0L1024 0L1024 67.9355L1024 135.27L1024 202.56L1024 271.023L960.954 270.993C960.818 264.433 961.423 253.426 960.587 247.237C960.023 205.902 944.357 166.201 916.544 135.618C907.167 125.607 899.31 118.5 888.349 110.416C867.587 95.9289 845.581 87.0857 820.914 81.9649C821.039 77.3507 820.987 72.5058 821.011 67.8712L820.989 0Z"/><path fill="#FEFEFE" d="M820.989 0L888.126 0L955.979 0L955.916 67.966C955.731 89.9275 955.285 113.053 955.702 134.926C949.939 134.941 918.846 134.434 916.544 135.618C907.167 125.607 899.31 118.5 888.349 110.416C867.587 95.9289 845.581 87.0857 820.914 81.9649C821.039 77.3507 820.987 72.5058 821.011 67.8712L820.989 0Z"/><path fill="#E9E8E8" d="M820.989 0L888.126 0C888.055 22.5827 888.167 45.1656 888.462 67.7465L821.011 67.8712L820.989 0Z"/><path fill="#E9E8E8" d="M888.513 67.9741L955.916 67.966C955.731 89.9275 955.285 113.053 955.702 134.926C949.939 134.941 918.846 134.434 916.544 135.618C907.167 125.607 899.31 118.5 888.349 110.416C888.785 96.7113 888.516 81.7712 888.513 67.9741Z"/><path fill="#E9E8E8" d="M955.979 0L1024 0L1024 67.9355L955.916 67.966L955.979 0Z"/><path fill="#E9E8E8" d="M955.978 135.029C963.761 135.348 972.14 135.096 980 135.105L1024 135.27L1024 202.56L956.038 202.611L955.978 135.029Z"/><path fill="#E9E8E8" d="M62.8443 339.833C62.875 341.793 62.8309 344.642 63.0898 346.51C63.181 355.132 63.2093 363.754 63.1747 372.375C63.1742 375.757 63.3763 382.282 63.0961 385.472C63.9758 403.219 63.3226 425.376 63.2942 443.476L63.4027 537.682L63.4129 597.748C63.4291 605.969 63.9258 623.259 63.0953 630.753C63.422 643.246 63.0379 655.856 63.1395 668.362C63.1597 670.853 63.261 673.913 63.0917 676.374C62.9364 678.814 62.8139 680.825 62.8532 683.291C41.9028 683.519 20.9508 683.541 0 683.359L0 614.835L0 546.593L0 476.227L0 408.104L0 339.997C20.9482 340.085 41.8968 340.03 62.8443 339.833Z"/><path fill="#FEFEFE" d="M0 476.227C20.9853 476.4 41.9718 476.32 62.9552 475.988L62.9416 546.557L0 546.593L0 476.227Z"/><path fill="#FEFEFE" d="M0 614.835C21.0318 615.167 42.2129 614.425 62.9965 614.684C62.9258 619.551 62.6494 626.033 63.0953 630.753C63.422 643.246 63.0379 655.856 63.1395 668.362C63.1597 670.853 63.261 673.913 63.0917 676.374C62.9364 678.814 62.8139 680.825 62.8532 683.291C41.9028 683.519 20.9508 683.541 0 683.359L0 614.835Z"/><path fill="#FEFEFE" d="M62.8443 339.833C62.875 341.793 62.8309 344.642 63.0898 346.51C63.181 355.132 63.2093 363.754 63.1747 372.375C63.1742 375.757 63.3763 382.282 63.0961 385.472C62.5297 391.81 62.8602 401.656 62.8955 408.308C43.0444 408.683 19.9075 408.644 0 408.104L0 339.997C20.9482 340.085 41.8968 340.03 62.8443 339.833Z"/><path fill="#FEFEFE" d="M553.301 0L620.374 0L687.516 0L754.512 0L820.989 0L821.011 67.8712C820.987 72.5058 821.039 77.3507 820.914 81.9649C793.187 76.9678 772.932 80.8142 746.99 79.0951C740.317 79.4293 731.92 79.1664 725.043 79.1465L687.447 79.1378C665.911 78.6534 642.196 79.1401 620.492 79.1762C620.579 75.521 620.495 71.5995 620.48 67.9213C598.638 67.9715 574.826 68.399 553.069 67.8469C553.689 62.3875 553.342 50.4603 553.317 44.513C553.187 29.6756 553.182 14.8374 553.301 3.55271e-15L553.301 0Z"/><path fill="#E9E8E8" d="M553.301 0L620.374 0C620.372 22.5267 620.149 45.4445 620.48 67.9213C598.638 67.9715 574.826 68.399 553.069 67.8469C553.689 62.3875 553.342 50.4603 553.317 44.513C553.187 29.6756 553.182 14.8374 553.301 3.55271e-15L553.301 0Z"/><path fill="#E9E8E8" d="M687.516 0L754.512 0C754.402 22.5953 754.44 45.191 754.626 67.7857C733.581 68.4593 708.849 67.8488 687.521 67.8027L687.516 0Z"/><path fill="#E9E8E8" d="M754.922 67.9637L821.011 67.8712C820.987 72.5058 821.039 77.3507 820.914 81.9649C793.187 76.9678 772.932 80.8142 746.99 79.0951C749.233 78.7911 752.588 78.8777 754.936 78.8648L754.922 67.9637Z"/><path fill="#E9E8E8" d="M620.48 67.9213C642.362 67.9682 665.654 68.2944 687.483 67.8073L687.447 79.1378C665.911 78.6534 642.196 79.1401 620.492 79.1762C620.579 75.521 620.495 71.5995 620.48 67.9213Z"/><path fill="#FEFEFE" d="M349.984 944.792L417.543 944.787C425.051 944.794 443.198 944.32 449.916 944.905C458.855 945.635 475.943 945.145 485.53 945.138L485.478 955.473L553.056 955.486C575.521 955.718 597.989 955.724 620.454 955.506L620.311 1024L553.479 1024L485.39 1024L417.924 1024L349.994 1024L349.98 955.493L349.984 944.792Z"/><path fill="#E9E8E8" d="M417.904 955.531C440.33 955.651 462.756 955.637 485.181 955.488L485.39 1024L417.924 1024C417.966 1001.27 417.681 978.214 417.904 955.531Z"/><path fill="#E9E8E8" d="M553.056 955.486C575.521 955.718 597.989 955.724 620.454 955.506L620.311 1024L553.479 1024L553.362 981.172C553.345 973.026 553.544 963.518 553.056 955.486Z"/><path fill="#E9E8E8" d="M349.984 944.792L417.543 944.787L417.571 955.457L349.98 955.493L349.984 944.792Z"/><path fill="#FEFEFE" d="M0 752.44C20.2138 752.465 42.8514 752.905 62.895 752.201C62.8956 754.912 62.7798 759.219 63.0924 761.752C63.2427 770.114 63.1189 781.007 63.9031 789.114C67.2438 826.057 82.5454 860.902 107.486 888.36C117.104 898.345 124.041 904.698 135.221 913.075C135.044 921.38 135.215 930.135 135.263 938.473C135.291 943.438 135.124 950.693 135.468 955.456L68.0454 955.466L0 955.664L0 888.521L0 820.986L0 752.44Z"/><path fill="#E9E8E8" d="M0 820.986L68.0494 820.981C68.2186 842.323 68.6452 867.392 68.125 888.527L0 888.521L0 820.986Z"/><path fill="#E9E8E8" d="M107.486 888.36C117.104 898.345 124.041 904.698 135.221 913.075C135.044 921.38 135.215 930.135 135.263 938.473C135.291 943.438 135.124 950.693 135.468 955.456L68.0454 955.466C68.1946 933.313 67.8479 910.829 68.2327 888.745C77.8019 889.336 98.1923 888.896 107.486 888.36Z"/><path fill="#FEFEFE" d="M0 0L68.1212 0L135.593 0C135.594 22.3886 135.893 45.6342 135.493 67.9621C135.47 78.5609 134.803 100.864 135.598 110.383C124.376 119.147 117.743 124.787 107.891 134.99C95.1115 134.467 80.9247 134.84 68.0281 134.911C46.2834 135.51 21.8496 135.07 0 134.983L0 67.8439L0 0Z"/><path fill="#E9E8E8" d="M0 0L68.1212 0L68.0684 67.8882C45.9443 67.9797 22.0272 68.3554 0 67.8439L0 0Z"/><path fill="#E9E8E8" d="M68.2463 67.981L135.493 67.9621C135.47 78.5609 134.803 100.864 135.598 110.383C124.376 119.147 117.743 124.787 107.891 134.99C95.1115 134.467 80.9247 134.84 68.0281 134.911C67.9475 112.601 68.0203 90.2903 68.2463 67.981Z"/><path fill="#E9E8E8" d="M68.0454 955.466L135.468 955.456C158.144 955.607 180.82 955.628 203.496 955.52L203.428 1024L135.562 1024L68.0201 1024L0 1024L0 955.664L68.0454 955.466Z"/><path fill="#E9E8E8" d="M0 955.664L68.0454 955.466L68.0201 1024L0 1024L0 955.664Z"/><path fill="#FEFEFE" d="M68.0454 955.466L135.468 955.456L135.562 1024L68.0201 1024L68.0454 955.466Z"/><path fill="#FEFEFE" d="M135.593 0L203.646 0L281.909 0L281.953 67.8703C256.167 67.4882 229.757 68.1281 203.868 67.9624C203.876 72.315 203.748 77.5564 203.995 81.8354C176.843 87.7422 158.74 94.5253 135.598 110.383C134.803 100.864 135.47 78.5609 135.493 67.9621C135.893 45.6342 135.594 22.3886 135.593 0Z"/><path fill="#E9E8E8" d="M135.593 0L203.646 0C203.487 22.5929 203.468 45.1866 203.591 67.7797C181.079 68.1273 158.09 67.8537 135.493 67.9621C135.893 45.6342 135.594 22.3886 135.593 0Z"/><path fill="#FEFEFE" d="M203.657 941.782C226.416 946.386 257.583 944.696 281.629 944.885L349.984 944.792L349.98 955.493L349.994 1024L282.005 1024L203.428 1024L203.496 955.52L203.657 941.782Z"/><path fill="#E9E8E8" d="M281.983 955.491L349.98 955.493L349.994 1024L282.005 1024C282.241 1001.33 281.996 978.195 281.983 955.491Z"/><path fill="#E9E8E8" d="M203.657 941.782C226.416 946.386 257.583 944.696 281.629 944.885L281.684 955.462C255.791 955.556 229.358 955.786 203.496 955.52L203.657 941.782Z"/><path fill="#FEFEFE" d="M68.0281 134.911C80.9247 134.84 95.1115 134.467 107.891 134.99C79.7368 166.676 63.8766 204.417 63.3032 247.119C62.3916 248.833 62.852 267.753 62.8831 270.779C42.8887 270.887 19.8202 271.346 0 270.639L0 202.615L0 134.983C21.8496 135.07 46.2834 135.51 68.0281 134.911Z"/><path fill="#E9E8E8" d="M0 134.983C21.8496 135.07 46.2834 135.51 68.0281 134.911C67.8975 157.459 67.9266 180.008 68.1154 202.555C45.7009 202.586 22.321 202.966 0 202.615L0 134.983Z"/><path fill="#E9E8E8" d="M417.973 0L485.274 0L553.301 0C553.182 14.8374 553.187 29.6756 553.317 44.513C553.342 50.4603 553.689 62.3875 553.069 67.8469C547.77 67.5058 536.977 67.9068 531.299 67.9121L485.513 67.9849L485.454 79.0833L418.046 79.1318L417.978 67.9212L417.973 0Z"/><path fill="#FEFEFE" d="M485.274 0L553.301 0C553.182 14.8374 553.187 29.6756 553.317 44.513C553.342 50.4603 553.689 62.3875 553.069 67.8469C547.77 67.5058 536.977 67.9068 531.299 67.9121L485.513 67.9849C485.029 45.7219 485.333 22.3514 485.274 0Z"/><path fill="#FEFEFE" d="M417.978 67.9212L485.513 67.9849L485.454 79.0833L418.046 79.1318L417.978 67.9212Z"/><path fill="#FEFEFE" d="M620.639 944.822L687.432 944.912L687.492 955.513C709.534 955.894 732.427 955.558 754.524 955.532L754.554 1024L687.562 1024L620.311 1024L620.454 955.506L620.639 944.822Z"/><path fill="#E9E8E8" d="M754.524 955.532L754.554 1024L687.562 1024L687.492 955.513C709.534 955.894 732.427 955.558 754.524 955.532Z"/><path fill="#E9E8E8" d="M620.639 944.822L687.432 944.912L687.492 955.513L620.454 955.506L620.639 944.822Z"/><path fill="#E9E8E8" d="M281.909 0L350.001 0C349.97 21.7604 349.419 46.3285 350.035 67.8685C327.922 68.1446 304.035 68.2584 281.953 67.8703L281.909 0Z"/><path fill="#FEFEFE" d="M350.001 0L417.973 0L417.978 67.9212C396.519 67.1318 372.08 68.3442 350.035 67.8685C349.419 46.3285 349.97 21.7604 350.001 0Z"/><path fill="#FEFEFE" d="M1024 476.231L1024 546.75C1003.13 547.138 981.459 546.765 960.48 546.858L960.488 476.28C965.097 475.966 974.842 476.44 980.092 476.45C994.728 476.479 1009.36 476.406 1024 476.231Z"/><path fill="#E9E8E8" d="M960.587 247.237C961.423 253.426 960.818 264.433 960.954 270.993L1024 271.023L1024 340.227L980.897 340.152C976.928 340.133 963.798 339.775 960.502 340.152L960.587 247.237Z"/><path fill="#E9E8E8" d="M62.8831 270.779C62.852 267.753 62.3916 248.833 63.3032 247.119L63.2217 309.933C63.2544 319.292 63.8943 338.272 63.0898 346.51C62.8309 344.642 62.875 341.793 62.8443 339.833C41.8968 340.03 20.9482 340.085 -3.55271e-15 339.997L0 270.639C19.8202 271.346 42.8887 270.887 62.8831 270.779Z"/><path fill="#E9E8E8" d="M960.51 681.955L961.19 683.124C964.382 683.82 978.24 683.536 982.209 683.53L1024 683.491L1024 752.421C1002.83 752.506 981.666 752.476 960.5 752.332L960.51 681.955Z"/><path fill="#E9E8E8" d="M63.0917 676.374C63.9749 689.502 63.2008 708.169 63.2725 721.867C63.331 733.028 63.8565 751.159 63.0924 761.752C62.7798 759.219 62.8956 754.912 62.895 752.201C42.8514 752.905 20.2138 752.465 0 752.44L0 683.359C20.9508 683.541 41.9028 683.519 62.8532 683.291C62.8139 680.825 62.9364 678.814 63.0917 676.374Z"/><path fill="#FEFEFE" d="M960.521 614.985C964.117 614.585 976.093 614.927 980.398 614.93L1024 614.96L1024 683.491L982.209 683.53C978.24 683.536 964.382 683.82 961.19 683.124L960.51 681.955L960.521 614.985Z"/><path fill="#FEFEFE" d="M960.502 340.152C963.798 339.775 976.928 340.133 980.897 340.152L1024 340.227L1024 408.499C1002.84 408.61 981.67 408.582 960.505 408.415L960.502 340.152Z"/><path fill="#E9E8E8" d="M960.48 546.858C981.459 546.765 1003.13 547.138 1024 546.75L1024 614.96L980.398 614.93C976.093 614.927 964.117 614.585 960.521 614.985L960.48 546.858Z"/><path fill="#E9E8E8" d="M960.505 408.415C981.67 408.582 1002.84 408.61 1024 408.499L1024 476.231C1009.36 476.406 994.728 476.479 980.092 476.45C974.842 476.44 965.097 475.966 960.488 476.28L960.505 408.415Z"/><path fill="#E9E8E8" d="M203.868 67.9624C229.757 68.1281 256.167 67.4882 281.953 67.8703C304.035 68.2584 327.922 68.1446 350.035 67.8685C372.08 68.3442 396.519 67.1318 417.978 67.9212L418.046 79.1318L291.46 79.3082C264.429 79.2858 230.074 77.6821 203.995 81.8354C203.748 77.5564 203.876 72.315 203.868 67.9624Z"/><path fill="#FEFEFE" d="M281.953 67.8703C304.035 68.2584 327.922 68.1446 350.035 67.8685C350.167 71.4304 350.102 75.2747 350.105 78.8627L281.924 78.8758L281.953 67.8703Z"/><path fill="#FEFEFE" d="M135.221 913.075C157.072 927.744 177.499 937.136 203.657 941.782L203.496 955.52C180.82 955.628 158.144 955.607 135.468 955.456C135.124 950.693 135.291 943.438 135.263 938.473C135.215 930.135 135.044 921.38 135.221 913.075Z"/><path fill="#E9E8E8" d="M485.513 67.9849L531.299 67.9121C536.977 67.9068 547.77 67.5058 553.069 67.8469L552.994 79.0392L485.454 79.0833L485.513 67.9849Z"/><path fill="#FEFEFE" d="M553.069 67.8469C574.826 68.399 598.638 67.9715 620.48 67.9213C620.495 71.5995 620.579 75.521 620.492 79.1762C599.629 78.4143 574.201 79.0642 552.994 79.0392L553.069 67.8469Z"/><path fill="#E9E8E8" d="M820.671 941.694C820.919 946.284 821.034 950.88 821.018 955.476L754.524 955.532C754.659 952.111 754.622 948.326 754.661 944.873C778.214 944.905 797.313 945.995 820.671 941.694Z"/><path fill="#E9E8E8" d="M449.916 944.905C462.251 944.171 479.257 944.693 491.775 944.762L552.943 944.858L553.056 955.486L485.478 955.473L485.53 945.138C475.943 945.145 458.855 945.635 449.916 944.905Z"/><path fill="#FEFEFE" d="M552.943 944.858C575.303 944.848 598.354 945.144 620.639 944.822L620.454 955.506C597.989 955.724 575.521 955.718 553.056 955.486L552.943 944.858Z"/><path fill="#FEFEFE" d="M687.432 944.912L754.661 944.873C754.622 948.326 754.659 952.111 754.524 955.532C732.427 955.558 709.534 955.894 687.492 955.513L687.432 944.912Z"/><path fill="#382664" d="M269.466 327.167C281.642 326.417 295.591 326.987 307.868 326.996L372.337 326.964L408.294 326.926C414.039 326.922 424.922 326.664 430.23 327.515C436.335 328.545 441.987 331.391 446.45 335.681C465.066 353.298 457.68 391.458 430.807 395.295C419.21 396.951 403.288 396.045 391.299 396.039L311.073 396.01C309.389 415.381 306.632 438.686 305.812 457.767C345.628 451.845 386.67 451.535 423.666 472.611C477.472 503.265 486.727 579.099 457.346 629.77C440.907 658.121 410.015 674.726 378.133 682.414C331.326 691.995 276.232 684.858 234.713 659.676C203.839 640.95 224.982 591.996 257.751 593.923C264.373 594.312 274.318 600.326 280.469 603.383C303.033 614.597 328.818 619.786 353.831 615.211C382.489 610.281 396.2 585.832 390.482 558.071C381.704 515.449 327.983 519.573 295.131 524.642C285.441 526.138 271.694 530.062 262.344 529.939C255.347 529.825 248.531 527.701 242.708 523.82C230.711 515.746 227.15 504.124 228.756 490.344C229.765 481.69 230.439 472.693 231.272 464.007L236.492 409.292L239.9 373.58C241.939 351.06 241.26 331.143 269.466 327.167Z"/><path fill="#382664" d="M570.369 422.142C585.266 420.634 592.952 426.912 602.75 436.738C622.353 456.394 642.453 475.682 661.539 495.85C674.202 481.652 689.845 468.214 703.128 454.37C712.239 444.874 722.392 434.352 732.661 426.327C735.964 423.745 744.72 422.177 749.006 422.163C758.377 422.046 767.391 425.754 773.967 432.431C786.128 444.794 786.817 465.538 774.44 477.986C767.971 484.491 761.511 491.031 755.023 497.525C739.952 512.798 724.772 527.964 709.485 543.022C732.097 566.583 756.874 588.56 778.552 612.992C780.659 615.365 782.184 620.541 782.794 623.695C784.636 632.958 782.627 642.573 777.229 650.323C771.227 658.907 763.398 662.73 753.375 664.465C751.709 664.57 750.04 664.611 748.371 664.586C732.085 664.301 725.889 654.589 714.948 644.078C712.726 641.944 710.562 639.709 708.378 637.533C692.507 621.897 676.82 606.075 661.32 590.07C660.935 590.533 660.544 590.991 660.147 591.444C649.016 604.175 633.894 617.99 621.87 630.351C612.742 639.735 600.301 652.717 589.877 660.474C586.745 662.805 579.923 664.22 575.887 664.436C566.645 665.01 557.565 661.811 550.724 655.572C543.398 648.913 540.551 641.494 539.842 631.75C538.501 613.33 554.252 603.307 565.824 591.179C581.253 575.008 598.459 559.489 613.738 543.049C592.085 522.332 571.445 500.404 550.001 479.455C544.332 473.918 541.56 469.654 540.293 461.711C537.039 441.301 550.502 425.305 570.369 422.142Z"/></svg>