<?xml version="1.0" encoding="utf-8" ?><svg xmlns="http://www.w3.org/2000/svg" xmlns:xlink="http://www.w3.org/1999/xlink" width="1024" height="1024" viewBox="0 0 1024 1024"><path fill="white" d="M0 0L1024 0L1024 1024L0 1024L0 0Z"/><path fill="#230789" d="M429.692 386.239C430.284 386.225 430.877 386.216 431.469 386.213C488.677 385.885 543.639 408.453 584.109 448.889C615.151 479.793 635.215 515.351 644.402 558.321C650.584 587.235 654.453 617.826 631.338 640.628C620.138 651.84 604.84 657.984 588.996 657.633C560.582 657.223 535.458 638.378 530.682 610.116C528.277 595.888 530.222 586.207 526.25 570.525C522.189 554.204 513.815 539.275 502.005 527.3C484.091 508.71 459.406 498.175 433.59 498.103C407.826 497.9 383.499 507.202 365.173 525.474C358.147 532.528 352.22 540.598 347.592 549.413C333.841 575.662 336.194 597.276 336.286 625.496L336.371 681.75L336.393 694.921L361.831 694.981C379.359 737.374 404.219 769.019 442.466 795.079C451.785 801.428 461.116 806.05 470.918 811.533C446.145 812.223 418.344 811.663 393.406 811.684L221.515 811.828L221.494 672.639L221.458 616.948C221.448 603.23 221.087 590.063 222.401 576.379C227.043 529.454 247.168 485.407 279.603 451.18C320.051 408.879 371.545 387.622 429.692 386.239Z"/><path fill="#230789" d="M429.457 535.205C432.392 535.024 435.335 535.043 438.267 535.264C464.435 536.961 486.054 556.324 490.613 582.148C492.78 594.196 491.478 605.731 494.34 618.338C497.844 634.472 505.418 649.441 516.342 661.821C535.616 683.734 558.924 693.236 587.456 694.953L587.512 808.299C567.774 807.619 558.017 806.609 538.698 802.417C508.991 796.189 475.648 778.87 452.548 759.449C407.946 721.949 378.897 673.369 373.697 614.778C371.782 593.191 372.306 573.646 386.993 556.263C397.979 543.26 412.708 536.657 429.457 535.205Z"/><path fill="#FC6855" d="M749.066 553.709C763.2 552.947 783.63 553.534 798.339 553.512C806.354 594.245 802.233 636.434 786.487 674.845C763.858 729.596 721.8 770.319 667.346 792.994C652.061 798.924 640.466 802.195 624.473 805.087L624.478 688.013C652.186 676.999 673.568 652.411 681.88 623.769C683.831 617.721 683.968 611.105 685.469 605.009C693.525 572.293 716.648 555.815 749.066 553.709Z"/><path fill="#FC6855" d="M576.627 380.713C608.306 379.572 639.858 385.301 669.113 397.508C722.862 419.728 765.414 462.633 787.189 516.563C771.017 516.579 750.626 516.251 734.887 518.082C711.115 521.915 696.436 531.293 679.788 547.874C678.167 541.989 676.507 535.788 674.714 530.009C657.842 475.608 621.937 428.43 574.612 396.868C567.377 392.043 558.724 386.261 551.054 382.207C559.573 381.631 568.098 381.133 576.627 380.713Z"/><path fill="#230789" d="M523.493 211.592C561.579 208.349 549.402 245.58 565.786 239.171C586.705 230.989 612.648 220.869 633.571 211.888C628.088 226.15 622.685 240.443 617.362 254.765C615.144 260.681 607.922 278.765 607.518 283.807C609.623 289.036 619.986 288.957 625.502 291.97C632.208 295.291 637.116 299.854 639.344 307.209C644.982 325.824 635.77 339.242 618.408 344.773C604.768 346.694 594.051 342.732 587.629 329.333C585.412 324.709 585.02 317.79 580.647 315.148C575.956 314.336 556.436 323.119 550.832 325.397L508.643 342.574C512.582 331.878 534.792 277.927 534.619 272.474C531.56 265.707 504.896 268.423 501.038 246.836C497.761 228.497 505.421 215.807 523.493 211.592Z"/></svg>