<?xml version="1.0" encoding="utf-8" ?><svg xmlns="http://www.w3.org/2000/svg" xmlns:xlink="http://www.w3.org/1999/xlink" width="1024" height="1024" viewBox="0 0 1024 1024"><path fill="white" d="M0 0L1024 0L1024 1024L0 1024L0 0Z"/><path fill="#FAC78C" d="M479.993 610.129C466.923 608.264 447.612 599.454 436.628 592.451C405.79 572.785 384.133 541.569 376.508 505.798C369.013 470.695 375.68 434.053 395.062 403.841C415.583 372.209 447.893 350.088 484.806 342.397C520.585 335.241 557.742 342.604 588.089 362.863C618.889 383.263 640.333 415.051 647.714 451.249C654.505 486.39 647.206 522.792 627.391 552.598C608.073 581.202 577.762 603.202 543.69 609.926L543.503 610.55C540.275 610.597 530.401 612.866 526.108 613.276C509.593 614.857 496.582 613.534 480.435 610.789C480.44 614.956 480.659 627.405 480.11 630.766C479.611 625.891 479.947 615.454 479.993 610.129Z"/><path fill="#FEE4C4" d="M479.993 610.129C466.923 608.264 447.612 599.454 436.628 592.451C405.79 572.785 384.133 541.569 376.508 505.798C369.013 470.695 375.68 434.053 395.062 403.841C415.583 372.209 447.893 350.088 484.806 342.397C520.585 335.241 557.742 342.604 588.089 362.863C618.889 383.263 640.333 415.051 647.714 451.249C654.505 486.39 647.206 522.792 627.391 552.598C608.073 581.202 577.762 603.202 543.69 609.926C542.931 603.716 543.458 583.171 543.469 576.062L543.619 575.169C567.492 569.645 589.176 550.331 601.98 529.836C615.871 507.528 620.316 480.61 614.333 455.02C607.961 427.588 590.921 403.825 566.983 388.989C543.174 374.401 514.555 369.841 487.391 376.307C459.686 383.072 435.868 400.702 421.306 425.224C407.421 448.371 403.287 476.081 409.809 502.273C418.365 536.379 446.631 565.595 480.284 575.663C480.081 580.794 479.42 600.642 480.353 604.771L480.435 610.789C480.44 614.956 480.659 627.405 480.11 630.766C479.611 625.891 479.947 615.454 479.993 610.129Z"/><path fill="#D03C3A" d="M440.743 408.369L583.003 408.351L583.029 551.724C573.038 551.795 552.856 552.517 543.442 551.659C539.193 551.35 534.02 551.485 529.715 551.545C513.338 551.774 496.767 551.232 480.411 551.672C468.701 552.095 452.346 552.265 440.67 551.85L440.675 457.157C440.678 441.578 440.245 423.805 440.743 408.369Z"/><path fill="#EC813D" d="M461.408 429.042L562.545 429.027L562.522 494.55C562.528 506.054 562.864 519.269 562.443 530.585C528.744 530.888 495.043 531.002 461.343 530.927L461.408 429.042Z"/><path fill="#D03C3A" d="M494.861 462.98C506.164 463.11 517.717 462.987 529.039 462.979L529.002 496.496L494.97 496.589C494.866 485.386 494.83 474.183 494.861 462.98Z"/><path fill="#4D3842" d="M480.411 551.672C496.767 551.232 513.338 551.774 529.715 551.545C534.02 551.485 539.193 551.35 543.442 551.659C543.426 557.277 543.067 570.089 543.619 575.169L543.469 576.062C543.458 583.171 542.931 603.716 543.69 609.926L543.503 610.55C540.275 610.597 530.401 612.866 526.108 613.276C509.593 614.857 496.582 613.534 480.435 610.789L480.353 604.771L480.483 575.386L480.411 551.672Z"/><path fill="#8B4D34" d="M480.411 551.672C496.767 551.232 513.338 551.774 529.715 551.545C534.02 551.485 539.193 551.35 543.442 551.659C543.426 557.277 543.067 570.089 543.619 575.169L543.469 576.062C540.864 576.169 531.117 578.315 527.684 578.821C511.89 581.173 495.771 580 480.483 575.386L480.411 551.672Z"/><path fill="#0C164C" d="M480.435 610.789C496.582 613.534 509.593 614.857 526.108 613.276C530.401 612.866 540.275 610.597 543.503 610.55L543.493 630.826L714.018 630.664L714.076 683.501L309.836 683.489C309.752 665.962 309.766 648.434 309.878 630.907C366.157 630.852 423.973 631.546 480.11 630.766C480.659 627.405 480.44 614.956 480.435 610.789Z"/></svg>